<svg xmlns="http://www.w3.org/2000/svg" viewBox="0 0 1200 800" preserveAspectRatio="xMidYMid slice">
<defs>
<radialGradient id="bg" cx="50%" cy="38%" r="85%"><stop offset="0%" stop-color="#202020"/><stop offset="60%" stop-color="#131313"/><stop offset="100%" stop-color="#0B0B0B"/></radialGradient>
<linearGradient id="gold" x1="0" y1="0" x2="1" y2="1"><stop offset="0%" stop-color="#E8C96A"/><stop offset="100%" stop-color="#9A7B2E"/></linearGradient>
<radialGradient id="halo" cx="50%" cy="50%" r="50%"><stop offset="0%" stop-color="#E8C96A" stop-opacity="0.35"/><stop offset="100%" stop-color="#E8C96A" stop-opacity="0"/></radialGradient>
<linearGradient id="beam" x1="0" y1="0" x2="0" y2="1"><stop offset="0%" stop-color="#E8C96A" stop-opacity="0.28"/><stop offset="100%" stop-color="#E8C96A" stop-opacity="0"/></linearGradient>
</defs>
<rect width="1200" height="800" fill="url(#bg)"/>

<polygon points="300,90 240,440 380,440" fill="url(#beam)"/>
<polygon points="900,90 820,440 960,440" fill="url(#beam)"/>
<polygon points="600,90 540,460 700,460" fill="url(#beam)" opacity="0.7"/>
<g><path d="M110 110 Q132 380 110 460" fill="none" stroke="#C9A84C" stroke-width="3.2" opacity="0.38"/><path d="M202 110 Q224 380 202 460" fill="none" stroke="#C9A84C" stroke-width="2" opacity="0.38"/><path d="M294 110 Q316 380 294 460" fill="none" stroke="#C9A84C" stroke-width="3.2" opacity="0.38"/><path d="M386 110 Q408 380 386 460" fill="none" stroke="#C9A84C" stroke-width="2" opacity="0.38"/><path d="M478 110 Q500 380 478 460" fill="none" stroke="#C9A84C" stroke-width="3.2" opacity="0.38"/><path d="M570 110 Q592 380 570 460" fill="none" stroke="#C9A84C" stroke-width="2" opacity="0.38"/><path d="M662 110 Q684 380 662 460" fill="none" stroke="#C9A84C" stroke-width="3.2" opacity="0.38"/><path d="M754 110 Q776 380 754 460" fill="none" stroke="#C9A84C" stroke-width="2" opacity="0.38"/><path d="M846 110 Q868 380 846 460" fill="none" stroke="#C9A84C" stroke-width="3.2" opacity="0.38"/><path d="M938 110 Q960 380 938 460" fill="none" stroke="#C9A84C" stroke-width="2" opacity="0.38"/><path d="M1030 110 Q1052 380 1030 460" fill="none" stroke="#C9A84C" stroke-width="3.2" opacity="0.38"/><path d="M1122 110 Q1144 380 1122 460" fill="none" stroke="#C9A84C" stroke-width="2" opacity="0.38"/></g>
<rect x="96" y="96" width="1008" height="34" rx="3" fill="url(#gold)" opacity="0.45"/>
<ellipse cx="600" cy="610" rx="240" ry="44" fill="url(#halo)"/>
<ellipse cx="600" cy="610" rx="120" ry="20" fill="#E8C96A" opacity="0.18"/>
<text x="600" y="720" font-family="Georgia,serif" font-size="34" fill="#C9A84C" fill-opacity="0.5" text-anchor="middle" font-style="italic" letter-spacing="1">Spectacle scénique</text>
<rect x="14" y="14" width="1172" height="772" fill="none" stroke="#C9A84C" stroke-opacity="0.28" stroke-width="1"/>
<rect x="22" y="22" width="1156" height="756" fill="none" stroke="#C9A84C" stroke-opacity="0.10" stroke-width="1"/>
</svg>